<?xml version="1.0" encoding="UTF-8" standalone="no"?>
<svg
   width="308.7612359841165"
   height="304.915625"
   viewBox="0 0 106.00782394174519 104.68749999999999"
   class="css-1j8o68f"
   version="1.1"
   id="svg23"
   sodipodi:docname="logo.svg"
   xmlns:inkscape="http://www.inkscape.org/namespaces/inkscape"
   xmlns:sodipodi="http://sodipodi.sourceforge.net/DTD/sodipodi-0.dtd"
   xmlns="http://www.w3.org/2000/svg"
   xmlns:svg="http://www.w3.org/2000/svg">
  <sodipodi:namedview
     id="namedview25"
     pagecolor="#ffffff"
     bordercolor="#000000"
     borderopacity="0.25"
     inkscape:showpageshadow="2"
     inkscape:pageopacity="0.0"
     inkscape:pagecheckerboard="0"
     inkscape:deskcolor="#d1d1d1" />
  <defs
     id="SvgjsDefs2684" />
  <g
     id="SvgjsG2685"
     featurekey="rootContainer"
     transform="matrix(0.9820592540669653,0,0,0.9820592540669653,-0.054560523427421584,0)"
     fill="#ff4a3f">
    <g
       id="g17">
      <path
         d="M19.8 15.3h.5l-.4-.2zm.5.1zm.8-.7c0 .1 0 .1.1.1l.4-.3c-.2-.1-.3-.1-.5.2zm.4-.2zm-4.1 2.3zm-.2.6l.3-.2c.1-.1.1-.2.1-.2h-.2l-.2.4c-.1-.1-.1 0 0 0zm2.2-2.9h-.1l-.2.2h.3zm-2.1 2.4l.6-.5c.1-.1.1-.2.1-.3h-.3l-1.2 1.1-.2.4.7-.6zm-1.1.8z"
         id="path3" />
      <path
         d="M9.7 25v-.2a1.7 1.7 0 0 1 .7-1.1l.9-.6.5-.6.7-.7.4-.4.4-.3a1.9 1.9 0 0 0 .8-.9l.4-.5a5.9 5.9 0 0 0 1-1.3l.2-.3.3-.2-.2-.3.4-.5c.8-.6 1.4-1.4 2.2-2l.3-.3a1.4 1.4 0 0 1 .5-.6l.8-.4h.4a1.4 1.4 0 0 0 .7-.6V13a3.5 3.5 0 0 1 1.3-1.4l.8-.5.2-.2.4-.4 1-.5h.2l-1.1.4-1.4 1c-.6.5-1.4.6-1.8 1.4h.3c-.7.2-1.4.5-1.7 1.2s-.8.6-1.2.9a.4.4 0 0 0-.3.4c-.8-.1-1.1.5-1.5.9v.8a3.9 3.9 0 0 0-1.6 1.4c-1.6.1-1.6 2.1-3 2.5h-.1a.2.2 0 0 0 0 .2c-.3 0-.5.2-.4.5l-.2.5c-.7.4-.6 1.1-1 1.7-.8.5-1.1 1.5-1.7 2.2l.3.5.2-.2a11.6 11.6 0 0 1 .9-1.3zM53.9 3.3l.6.2h.2a2.2 2.2 0 0 0 1.4.2 4.1 4.1 0 0 1 1.9.1h1.2a1.4 1.4 0 0 1 1.2.3.1.1 0 0 1 0 .1H60a.1.1 0 0 0 0 .1h.7a1.8 1.8 0 0 1 1.3 0c.2 0 .1.1.2.2l.5.2h-.2c-.2-.4-.5-.4-.8-.4a9.7 9.7 0 0 0-4.3-.9h-.8A9.8 9.8 0 0 0 53 3h.2zm7.3 3.1zM50.3 4.7zm10.9 1.7h.2-.2zM19 14.7zm32.1-10zm17.6 2.2a.9.9 0 0 0 1 .2h.6a3.1 3.1 0 0 0-1.8-.7l-.7-.2.5.3zm-3.4-1.3c0 .1.1.2.2.3h.2l.5-.3a4.2 4.2 0 0 0-1.7-.6l.7.4zm7.4 2.7l.8.5c-.2-.3-.4-.5-.8-.5z"
         id="path5" />
      <path
         d="M99 76.1l.6-1.6.6-1.5c.2-.5.6-1.8.8-2.6a1.7 1.7 0 0 1 .3-.7h.1v-1.1c.5-.1.4-.6.5-.9l.8-4.7a12.7 12.7 0 0 0 0-6.2 1.9 1.9 0 0 0-.5-1.6v-4.3c-.3-.9.3-1.9-.4-2.7L101 45a.4.4 0 0 0 0-.2l-.2-.6a.5.5 0 0 1 0-.4h.1c.3 0 .3-.5.3-.9a3 3 0 0 0-.4-1.1l-.3-.4a1.1 1.1 0 0 1-.2-.7 6.7 6.7 0 0 0-.2-2v-.6c-.2-.7-.4-1.5-.6-2.2l-.2-.5a2.5 2.5 0 0 1-.4-1.1 2.5 2.5 0 0 0-.3-.8l-.6-1a.8.8 0 0 0-.6-.2h-.1V32h-.2v-.8H97V31a.4.4 0 0 0 0-.1v-.2c.1-.2.1-.3-.1-.5a1.8 1.8 0 0 1-.4-.6l-.2-.6a2.9 2.9 0 0 0-.7-1.2 2.2 2.2 0 0 1-.5-.7l-.7-1.6a4.3 4.3 0 0 0-.6-1l-.6-.8a2.4 2.4 0 0 1-.4-.8l-.2-.3a.6.6 0 0 1-.1-.5.5.5 0 0 0-.2-.4l-.4-.3v.2c.1.2 0 .3-.1.3h-.2l.3 1 .3.5.7.9h-.1l-.2-.2-.2-.2a1.3 1.3 0 0 0-1.2-1.1v-.7c-.3-1.2-1.6-1.3-2.2-2.1a1.5 1.5 0 0 0-1.1-.9l-.8-.9a11.3 11.3 0 0 0-3.1-3l-.8-.6-.4-.3c-.7-.7-1-1.8-2.2-1.8l-.8-.5-.9-.7a2.2 2.2 0 0 0-1.8-1.3 5.1 5.1 0 0 0-2.3-1.2l.2.2.5.4 1.3.7a8.5 8.5 0 0 1 2.1 1.6 6.8 6.8 0 0 0 1.5 1.1l.6.5c.1.1.2.2.1.3H81l-.9-.3a5.6 5.6 0 0 1-2-.8l-1.2-.6-1.3-.7h-.2c-.3-.1-.4-.4-.8-.5l-.8-.2-2.5-.5a2.6 2.6 0 0 1-.9-.7 1.7 1.7 0 0 1-.9-.3l-1-.4a18.1 18.1 0 0 1-2.8-.8l-.6-.2-1-.3h-.5l-.2-.3v-.1h-1.6l-.6-.5-.4.2-.4.2h-.2l-.9-.5c-.6.6-1.1-.2-1.6-.1l-1-.3a1.2 1.2 0 0 1-1.2 0h-1.2a.6.6 0 0 1-.5-.6l.3-.2h.6a.7.7 0 0 1 .1.3c0 .2.2.2.5.2h.2l-.4-.6a1.1 1.1 0 0 0-1-.2l-1 .3H53c.3.2.2.3.2.5h-1.6l-.4-.2-.8-.4h-.1l-.7-.2h-2.3l.4-.2.8-.2h.3l1.7-.3 1.1-.2.6-.2h-1.1a8.4 8.4 0 0 0-3.4 0h-1.3L43 3.6c-1.4.1-2.8 0-3.9 1.2-2.5-.4-4.7.7-6.9 1.8l-2.2.9a6.7 6.7 0 0 0-3.7 1.8h.3l.5-.3.8-.5 1.3-.6 1-.2a6 6 0 0 1 2-.9l.9-.3h.2c.1.2.5 0 .7 0h.2c.1 0 .1.1 0 .1l-.6.4 1-.3.8-.2-1.3.7-1.3.4a1 1 0 0 0-.6.5l-.3.5h.3l.4-.2a1.4 1.4 0 0 1 .9-.6l1.5-.5h.5a.1.1 0 0 1 .1.2c-.2.2-.6.3-.8.5h.2l-3.2.9-3.8 1.6a5.2 5.2 0 0 1-2.3 1.2 6.6 6.6 0 0 1-1.7 1.1l-.8.2a1.5 1.5 0 0 1-1.3.9l-.3.5a3.7 3.7 0 0 1-1.2 1.1h-.1v-.1l-.2.2-.2.2-1 .2h-.5l-.4.5c-.1.1-.1.2 0 .2h.1c-.6.6-1 1.4-1.8 1.7L15 19.9c-.6 1.2-1.8 1.6-2.6 2.6s-1.4 3.9-3.9 4.3l-.2-.3-.2.5a2.7 2.7 0 0 1-.4.8 16.9 16.9 0 0 0-1.2 2.1.8.8 0 0 0-.1.5 1.4 1.4 0 0 1-.2.8l-.5 1.1h.2c.3 0 .3.3.4.6l.8-1.1a2.2 2.2 0 0 1 .6-.7 2 2 0 0 0 .9-.9l.3-.3.4-.4.6-1.1h.2c.1.1.1.1.2 0l.2-.4h.5v.8l.5-.5a.5.5 0 0 0 0-.5.4.4 0 0 1 .1-.3 1.5 1.5 0 0 0 .3-.5 1.3 1.3 0 0 1 .8-.9l.3-.2.3-.3a2.4 2.4 0 0 0 .8-1l-.2-.3c0-.1.1-.3.2-.4h.5l.6-.8.6-.3h.2a48.8 48.8 0 0 0-5.5 7.2h-.1.1a48.4 48.4 0 0 0-5.3 11.2h-.5l-.5-.4c-.2-.2-.1-.7-.4-.9h.1c.3-.5-.1-1.2.3-1.7s.1-1.4-.9-1.2-1.5.5-1.3 1.5-1 1.8-1.1 2.9-.5.5-.3.9v3.9c.1.8-.5 1.8.8 2.1l1.3.9c.1.5-.5 1.6.9 1.3a49.2 49.2 0 0 0-.3 5c0 1.1.1 2.2.1 3.3v-.4c-.1-.4-.1-.8-.2-1.3l-.3.3v-.2h-.5c0 .5-.1.8-.4.9a.9.9 0 0 0-.1.5c0 .1.1.3.2.2s.4.2.7.4-.2.3-.4.2-.2.1-.2.3v.3l.5 1.5c0 .3-.1.6-.1.9a1.7 1.7 0 0 0 .2.8h-.3v-.3l-.7-.2v-.6a1.5 1.5 0 0 0 0-.5 14.6 14.6 0 0 1-.3-1.8 16.6 16.6 0 0 1-.2-3.5.9.9 0 0 1 .1-.5v.2a2.9 2.9 0 0 1 .1.5.8.8 0 0 0 .1.4c.1.2.2.4.4.4s.1-.1.1-.2a2.1 2.1 0 0 0-.1-.5 4.2 4.2 0 0 1-.3-1.3 1.5 1.5 0 0 0-.3-.7 1.6 1.6 0 0 1-.2-.9v-.8c0-.3.1-.6.1-.9a.5.5 0 0 0-.1-.4h-.1c-.8.4-.7.2-1 1.6V55c0 .7-.1 1.4 0 2.1a10.8 10.8 0 0 0 .2 2.3 1.8 1.8 0 0 1 0 .5 3.1 3.1 0 0 0 .1.9 5.9 5.9 0 0 1 .1 1.3 3.9 3.9 0 0 0 .2 1.7 1.2 1.2 0 0 1 0 .4 2.1 2.1 0 0 0 .1.8 4.9 4.9 0 0 1 .2.9 14 14 0 0 0 .5 2.2 5 5 0 0 1 .2 1 1.7 1.7 0 0 0 .3.7 2.9 2.9 0 0 1 .5 1.2 8.5 8.5 0 0 0 .3 1l.4 1.4a5.4 5.4 0 0 0 .6 1.5 8.5 8.5 0 0 1 .8 2.1l.2.5a2.1 2.1 0 0 1 .5 1 2.1 2.1 0 0 0 .4.8 1 1 0 0 1 .2.5c.1.3.2.4.4.3h.1v.9l.5 1 .5 1 1.1 1.2.4.4c.3.3.7.5.9 1l.4.3a.7.7 0 0 1 .3.5l.2.7a3.3 3.3 0 0 0 .6.9l.4.2h.3a.2.2 0 0 1 .1.3 2.5 2.5 0 0 0 0 .5.9.9 0 0 0 .4.5h.2c.4-.1.8.2 1.2.7h.1c0-.1.1-.1 0-.2v-.2c0-.1.1-.2.2-.1a.7.7 0 0 1 .3.6v.2a4.3 4.3 0 0 0 .4 1.2c.5.3.5.3.5.1s0-.2.2-.2h.4l.2.3.8.5c.7.8 1.8.7 2.6 1.2l1.7 1.7h.2a2.9 2.9 0 0 0 1.6 1.6 1.3 1.3 0 0 0 1 .6c0 .5.6.6 1.1.7a1.2 1.2 0 0 0 .8.4h.2a1.7 1.7 0 0 0 1.5.5l.9.8 2.4.9v.2c.5 1.1 1.7.7 2.5 1l1.1.4h.4c1.2.3 2.4.9 3.7.5a.7.7 0 0 0 0 .4c1.1.7 2.4 0 3.6.4a2.9 2.9 0 0 0 1.7.1h.1l.8.2h.3l.9.2h.3a.5.5 0 0 1 .5 0 7.9 7.9 0 0 0 1.5.4h.6a.7.7 0 0 1 .7 0h3.9a5 5 0 0 0 1.6-.1h1l.5-.2H60l.6-.2.5-.3h2.2v.6H62l-1.2.2c-.4.1-.7 0-1 .1a2.4 2.4 0 0 1-1 .2l-1.3.3h-.4a3.1 3.1 0 0 0-1.5.1h-1.8a1.1 1.1 0 0 1-.9 0h-4.5a1.3 1.3 0 0 0-1.1.3H47l-.3-.2v-.3h-1.2a4.1 4.1 0 0 0-1.3-.3h-2.5l-.7-.2-.5-.2-2.1-.4h-.5l-.5-.2-2.1-.7-1.4-.4h-2.2c-.1 0-.1.1-.1.2h.2c1.3.5 2.6.9 3.9 1.5h.3l.9.2 1.4.4h1.3l.6.2.7.3 1.7.3 1.1.2 1.1.2h.8l.8.2h3.1l1 .2h2.3l1-.2H56c.4 0 .6-.1.7-.3h1a1 1 0 0 0 .8-.3c-.1.1 0 .1.1.2h.4v-.2c0-.1 0-.1.2-.2s.6-.1.7.1h.4l.3-.2c.2 0 .2 0 .2.1h.7l.5-.2.8-.4c.1.3.4.4 1.3.2l1.3-.4h1.2c.9-.1 2 0 2.7-.7h.2l.4-.3 1.1-.3a6.1 6.1 0 0 0 2-.8l.4-.2h.1l.9-.6.4-.2.5-.2h.4c.4-.1.4-.1.5-.4s0-.1-.2-.1h-.1l.4-.5h.2c.3-.1.5-.2.7-.1h.2a1.3 1.3 0 0 0 .9-.9c.3-.4 1.1-.2 1.3-.8l4.3-3.1c1.1-.1 1.4-1.1 2.2-1.7s2.3-1.1 3-2.2l.9-.4h.1a1 1 0 0 0 1.2-.7v.4c.8-.4 1.8.3 2.6-.5s0-2.7 1-3.8l.7-.5a12.1 12.1 0 0 0 1.5-4.2l.2-.2c0-.3 0-.7.4-.9a.9.9 0 0 0 .2-1.2h-.2a.3.3 0 0 0 0-.3c.7 0 .8-.7 1.2-1V77a.5.5 0 0 1 0-.2 3.8 3.8 0 0 0 .1-.7zM5.9 32.2z"
         id="path7" />
      <path
         d="M26.4 9.3l-.3.2-.4.3.5-.2zm6.1-2h.1l.3-.2h-.4zm-2.6 1l-.1.1h.1v-.1zm-1.5 1.4zm1.3-.2zm-6.3 3.1zM9.2 26.2l-.4.4H9a.4.4 0 0 0 .2-.4zm3-3.5a2.1 2.1 0 0 0 .3-.6 1.5 1.5 0 0 0-.5.5c-.1.1-.1.2 0 .2zM11 24.2V24c-.2 0-.5.3-.8.3v.2c.3.3.4.2.8-.3zm3 66.2zM73.9 9.2h.1l-.5-.3zm-2.5-1.4c.5-.1.8.4 1.2.5h.1l-.3-.2-1-.5-1.1-.5.3.2zM52.8 3.1zm11.7 2h-.1l-1.2-.2h.5zm2 .7l1.3.4a3.3 3.3 0 0 0-1.3-.4zm-9 0a1 1 0 0 0 .2-.5h-.5l-.3.3.4.3zm9 1.6zM49.9 4.2zm2.9.7zM48.5 4zm13.8 2.1a.5.5 0 0 0 0 .1zm44.8 52.3h-.3V58h.3c.1 0 .2-.3.1-.4s-.1-.7-.3-.8a.3.3 0 0 1-.2-.3l.2-.4a.4.4 0 0 0 0-.2h-.2l-.2-.3c-.1.3-.2.6-.4.7a.5.5 0 0 0 0 .2c0 .1 0 .2-.1.2h-.1a1.1 1.1 0 0 1-.1.3 2.3 2.3 0 0 0-.4.9.4.4 0 0 0 .1.4h.1a1.7 1.7 0 0 0-.1.8v.4a1.8 1.8 0 0 1-.1.5h-.1l-.4.7v.6a1.5 1.5 0 0 1-.3 1.1h-.2l-.2-.2a.9.9 0 0 1-.1-.8 6.5 6.5 0 0 0 .1-1.7c0-.1-.1-.2-.1-.2a.5.5 0 0 0-.1.3v.6c0 .2-.1.6-.3.7s-.1.2-.1.3l-.2.6.3.5c-.2.2-.4.1-.5-.1v1h.3v.4a4.2 4.2 0 0 0-.3 1.4 3.3 3.3 0 0 0 0 .4 4 4 0 0 1-.2 1.3 2 2 0 0 0 0 .6l-.3.7a3.2 3.2 0 0 1-.3.7l-.3.6-.9 2.7c.3.9-.4 1.5-.8 2.1a2.7 2.7 0 0 1-.8 2.3v.4c0 .1.1.2.3.1l.4-.3.2-.4h.2c.1.1.2.1.4-.1h.2a.5.5 0 0 1 .1.6 2.9 2.9 0 0 0-.1.8c0 .1 0 .2.1.2h.2c.1.1.2 0 .3-.3l.2-.5h.3c.4-.1.4-.1.6-.6l.5-.9.3-.6.4-1a1.6 1.6 0 0 1 .3-1 .6.6 0 0 0 .1-.6c0-.2 0-.3.2-.6l.3-.4.5-1a4.7 4.7 0 0 1 .2-.9 3 3 0 0 0 .3-1.3 3.8 3.8 0 0 1 .3-.9v-.5c-.1-.2-.1-.2 0-.6s.1-.2.2-.2a.4.4 0 0 1 .1.3l.2-.5a2.3 2.3 0 0 0 .2-.9v-.3c0-.1 0-.3-.1-.3v.4c-.2 0-.3.2-.5.3a6.4 6.4 0 0 0 .1-.8l.4-.2a.7.7 0 0 0 .2-.6 1.4 1.4 0 0 1 0-.3 4.8 4.8 0 0 0 .2-1.4v-.2l.3-1h.1a.3.3 0 0 0 .1-.3h-.1a.9.9 0 0 1 .2-.8 1.5 1.5 0 0 0-.9-1zm-1.2 7.8zm-.2-9.9zm0 0zM9.1 30.8a.3.3 0 0 0 0-.2l-.2-.2-.2.2-.3.6c0 .3-.3.6-.3.9v.2h.1zm96.3 24.8h.1a1.7 1.7 0 0 0 .2-1.2.5.5 0 0 1 .2-.5h.1v-.2l-.2-.2h-.1c-.1.1-.2.3-.3.3s-.1.1-.1.3v.3a2.2 2.2 0 0 0 .1 1.2zM13.2 90.1c-.1 0 0 .2 0 .3l.8.8h.1c-.2-.3-.3-.6-.2-.7a.9.9 0 0 1-.5-.2zm.8.3zm92.3-35.7h.1a2 2 0 0 0 0-.6c-.3.1-.3.1-.3.6s.1.1.2 0z"
         id="path9" />
      <path
         d="M106.7 62a.6.6 0 0 0 .1-.5c0-.1-.1-.2-.1-.1h-.2v.2c0 .4.1.5.2.4zm.1-8.2h-.1v.6a1 1 0 0 0 .1-.6zM17.1 92.6h-.2v.2l.2.2h.2v-.2zm86.6-33.3c0-.1 0-.1-.1-.1zM9.9 86.5l.5.5-.4-.6z"
         id="path11" />
      <circle
         cx="10.5"
         cy="87.1"
         transform="rotate(-24.8 10.4 87.159)"
         id="circle13" />
      <path
         d="M9.7 30.1h-.1v.2-.2h.1zm83.2-6.6l-.2-.3h-.1zm-14.7 77.1zM5.9 32.2zm-.1.2a.3.3 0 0 0 .1-.2v.2zm1.9-4.9zM61.5 2.4zm42.8 58.2v.1-.1zM16.4 92.5h-.1c.1.1.2 0 .1-.1zm.2.7h.1l-.1-.1v.1zm73.9-71.3zm15.2 34.4zM14.6 91.7zm92.1-37zm-.8 11.4zM34.6 0z"
         id="path15" />
    </g>
  </g>
  <g
     id="SvgjsG2686"
     featurekey="nameFeature-0"
     transform="matrix(2.284354285447385,0,0,2.284354285447385,27.980055421585643,-5.609520280720151)"
     fill="#ffffff">
    <path
       d="M9.6 16.48 l-0.32 4.24 c-0.08 1.8 2.6 1.96 2.72 0.2 l0.24 -4.28 c0.12 -1.76 -2.56 -1.96 -2.64 -0.16 z M0.48 11 l0 0 c0.04 0 20.48 -0.32 20.56 -0.2 c1.28 1.12 0.96 27.8 0.12 28.56 c-0.4 0.32 -4.64 0.56 -9.2 0.6 c-0.84 -3.84 -0.2 -8.32 -0.2 -8.32 c0.24 -1.8 -2.44 -2.12 -2.64 -0.4 c0 0.04 -0.64 4.52 0.16 8.76 c-4.56 -0.04 -8.68 -0.24 -8.92 -0.64 c-0.8 -1.44 0 -28.28 0.12 -28.36 z"
       id="path20" />
  </g>
</svg>

<svg version="1.1" id="Layer_1" xmlns="http://www.w3.org/2000/svg" xmlns:xlink="http://www.w3.org/1999/xlink" x="0px" y="0px"
	 width="308.7612359841165" height="304.915625" viewBox="0 0 106.00782394174519 104.68749999999999" xml:space="preserve">
    <sodipodi:namedview
     id="namedview25"
     pagecolor="#ffffff"
     bordercolor="#000000"
     borderopacity="0.25"
     inkscape:showpageshadow="2"
     inkscape:pageopacity="0.0"
     inkscape:pagecheckerboard="0"
     inkscape:deskcolor="#d1d1d1" />
     
<path fill="#FFFFFF" opacity="1.000000" stroke="none" 
	d="
M1397.000000,1501.000000 
	C931.333496,1501.000000 466.166931,1501.000000 1.000312,1501.000000 
	C1.000208,1001.000305 1.000208,501.000580 1.000104,1.000647 
	C667.666199,1.000432 1334.332397,1.000432 2000.998901,1.000216 
	C2000.999268,500.999359 2000.999268,1000.998718 2000.999634,1500.999023 
	C1799.833374,1501.000000 1598.666626,1501.000000 1397.000000,1501.000000 
M1314.205688,608.500488 
	C1314.216553,529.335449 1314.200928,450.170441 1314.307617,371.005554 
	C1314.313721,366.521729 1313.085815,363.151703 1309.857056,359.943604 
	C1278.173462,328.462372 1246.584717,296.885132 1215.070435,265.234283 
	C1212.000366,262.150879 1208.770752,260.951508 1204.453613,260.955292 
	C1101.624512,261.045502 998.795227,261.046661 895.966003,260.952576 
	C891.611877,260.948608 888.398315,262.267334 885.374695,265.340057 
	C871.698547,279.238251 857.868958,292.985565 844.084717,306.777374 
	C842.876282,307.986450 841.595886,309.123627 839.815247,310.795258 
	C834.659485,291.580292 829.803284,273.284729 824.758850,255.041214 
	C824.336487,253.513702 822.647461,252.336411 821.546936,250.996399 
	C820.458740,252.357040 818.792969,253.559067 818.369202,255.102158 
	C812.160034,277.714630 805.979553,300.336945 800.071655,323.029663 
	C794.067688,346.091309 779.615112,360.547150 756.694641,366.690887 
	C739.987427,371.169159 723.272705,375.618927 706.569153,380.110657 
	C696.981506,382.688904 687.409546,385.325592 676.589233,388.274261 
	C703.286804,395.450134 728.605591,402.332764 753.971802,409.036072 
	C764.403015,411.792633 774.141541,415.702240 782.371338,422.959595 
	C785.229248,425.479767 786.408508,428.133606 786.392761,431.997955 
	C786.251587,466.662659 786.310364,501.328186 786.310364,535.993469 
	C786.310364,537.631226 786.310364,539.268982 786.310364,541.455078 
	C784.339722,541.004456 782.890137,540.797180 781.523560,540.341064 
	C769.658142,536.380554 762.372742,528.116211 759.131531,516.181152 
	C754.941467,500.752045 750.833008,485.300751 746.414246,468.833466 
	C745.688782,470.955231 745.259399,472.011536 744.964355,473.104126 
	C741.279236,486.751495 737.398071,500.350708 734.000854,514.069702 
	C730.258972,529.180298 720.966248,538.232727 705.925842,541.935181 
	C693.008423,545.115051 680.196350,548.723694 667.348816,552.184143 
	C666.168701,552.502014 665.069214,553.119690 662.501038,554.200562 
	C665.297607,555.138000 666.723267,555.695740 668.191895,556.095703 
	C681.670105,559.765930 695.168945,563.360657 708.635315,567.073425 
	C721.401611,570.593140 729.681702,578.689270 733.158325,591.553284 
	C736.803162,605.039856 740.431396,618.530884 744.096436,632.011963 
	C744.683411,634.170837 745.424683,636.287659 746.363586,639.281860 
	C751.046021,622.080322 755.282104,605.827637 759.923401,589.691467 
	C763.482727,577.316833 774.542419,567.964417 786.310425,567.105164 
	C786.310425,569.267090 786.310425,571.395203 786.310425,573.523315 
	C786.310425,679.185791 786.333557,784.848267 786.235718,890.510681 
	C786.231201,895.337891 787.474915,898.964355 790.991943,902.455627 
	C822.690613,933.921753 854.252014,965.526550 885.759460,997.184448 
	C888.565857,1000.004211 891.487610,1001.226624 895.452698,1001.223877 
	C998.781860,1001.151733 1102.111206,1001.200317 1205.439941,1001.003906 
	C1208.515259,1000.998047 1212.344604,999.345215 1214.544312,997.168518 
	C1246.529541,965.518372 1278.264282,933.615356 1310.167847,901.882324 
	C1313.146851,898.919189 1314.256592,895.820251 1314.234253,891.701904 
	C1314.100952,867.203613 1314.300049,842.702942 1314.058105,818.206360 
	C1314.014526,813.808350 1315.399658,812.053284 1319.556396,811.195068 
	C1325.463867,809.975403 1331.243652,808.137451 1338.566528,806.162170 
	C1336.180786,804.927429 1335.314453,804.286255 1334.344116,804.009338 
	C1329.546997,802.640625 1324.786865,800.973755 1319.889282,800.174072 
	C1315.086304,799.389709 1314.052979,797.139160 1314.066895,792.492920 
	C1314.248535,731.495911 1314.197876,670.498108 1314.205688,608.500488 
M983.265320,1192.500244 
	C983.265320,1166.422607 983.265320,1140.344971 983.265320,1114.267456 
	C985.306580,1115.379272 986.314453,1116.782837 987.230225,1118.244019 
	C1011.358704,1156.747070 1035.460083,1195.266968 1059.659058,1233.725464 
	C1060.687012,1235.359131 1062.514404,1237.440308 1064.123657,1237.583862 
	C1069.540527,1238.066895 1075.027222,1237.767700 1080.961426,1237.767700 
	C1080.961426,1191.052124 1080.961426,1144.802124 1080.961426,1098.150635 
	C1088.401367,1098.150635 1095.359863,1098.150635 1102.510254,1098.150635 
	C1102.510254,1092.507324 1102.510254,1087.269897 1102.510254,1081.810791 
	C1082.528687,1081.810791 1062.809204,1081.810791 1042.948975,1081.810791 
	C1042.948975,1087.372070 1042.948975,1092.611816 1042.948975,1098.206421 
	C1049.335449,1098.206421 1055.456055,1098.206421 1061.629395,1098.206421 
	C1061.629395,1133.196167 1061.629395,1167.825928 1061.629395,1203.380127 
	C1060.039429,1200.863281 1058.971191,1199.195068 1057.925171,1197.512939 
	C1039.644653,1168.114014 1021.419922,1138.680176 1003.039246,1109.343994 
	C999.779968,1104.141968 996.127625,1099.135132 992.209351,1094.409180 
	C986.062744,1086.995728 978.226074,1081.744507 968.542847,1080.775269 
	C959.660767,1079.886230 950.576477,1079.381104 941.717896,1080.194702 
	C912.922791,1082.839111 894.819397,1103.859253 897.076172,1131.695068 
	C897.967712,1142.691772 902.267578,1152.412231 913.231140,1156.763550 
	C923.412109,1160.804077 934.152405,1161.020508 943.139404,1153.834595 
	C952.119141,1146.654419 954.121582,1136.172607 954.130493,1125.115479 
	C948.067078,1125.115479 942.462646,1125.115479 936.566101,1125.115479 
	C936.315552,1127.608398 936.226318,1129.918457 935.829712,1132.174438 
	C934.658691,1138.835449 931.341553,1142.203735 926.078979,1142.276367 
	C920.326843,1142.355713 916.145630,1138.719849 915.138855,1132.090332 
	C913.467224,1121.083252 916.321411,1111.544800 925.453552,1104.583496 
	C936.998962,1095.782593 950.021545,1094.633911 963.866028,1097.326172 
	C963.866028,1138.686279 963.866028,1179.712158 963.866028,1221.051147 
	C956.705872,1221.051147 949.915833,1221.051147 943.123657,1221.051147 
	C943.123657,1226.761230 943.123657,1232.148193 943.123657,1237.473633 
	C963.117126,1237.473633 982.714294,1237.473633 1002.552979,1237.473633 
	C1002.552979,1231.938599 1002.552979,1226.701782 1002.552979,1220.964600 
	C996.054443,1220.964600 989.801697,1220.964600 983.264954,1220.964600 
	C983.264954,1211.477661 983.264954,1202.488892 983.265320,1192.500244 
M1146.925415,1124.316040 
	C1139.799927,1126.865601 1131.859253,1128.175171 1125.713745,1132.215454 
	C1111.653687,1141.459106 1111.273071,1161.602539 1124.359253,1171.989502 
	C1129.673340,1176.207397 1135.569580,1179.742432 1141.415405,1183.228394 
	C1149.983521,1188.338013 1158.817017,1193.003174 1167.376099,1198.127197 
	C1169.718994,1199.529663 1172.031128,1201.568726 1173.412842,1203.880371 
	C1177.356812,1210.479004 1173.741577,1217.840942 1164.904175,1220.756958 
	C1154.145020,1224.307129 1143.202637,1223.614868 1132.458862,1220.468750 
	C1131.163086,1220.089233 1129.790527,1217.818604 1129.594116,1216.279053 
	C1129.162109,1212.894165 1129.460083,1209.416016 1129.460083,1205.960938 
	C1123.916992,1205.960938 1119.035767,1205.960938 1113.884277,1205.960938 
	C1113.884277,1213.305542 1114.055664,1220.295166 1113.806763,1227.269897 
	C1113.694580,1230.416748 1114.793823,1232.035767 1117.599243,1233.317627 
	C1130.054443,1239.008545 1143.111206,1240.521362 1156.602295,1239.410645 
	C1166.899902,1238.562744 1176.663208,1236.185791 1184.734497,1229.237061 
	C1197.235596,1218.474609 1197.096680,1200.520386 1184.333496,1190.204224 
	C1180.721436,1187.284668 1176.848145,1184.622437 1172.845337,1182.265381 
	C1162.388184,1176.107788 1151.762085,1170.238037 1141.268311,1164.141602 
	C1136.895386,1161.601074 1133.274170,1158.224365 1134.316772,1152.568359 
	C1135.427124,1146.544922 1139.494995,1143.005737 1145.384399,1141.765137 
	C1154.558960,1139.832397 1163.631470,1140.567871 1172.379517,1143.844727 
	C1173.692383,1144.336548 1174.987671,1146.552124 1175.154419,1148.093140 
	C1175.556274,1151.808472 1175.284790,1155.596680 1175.284790,1159.347656 
	C1180.957886,1159.347656 1185.863892,1159.347656 1191.007690,1159.347656 
	C1191.007690,1151.674805 1190.812256,1144.345947 1191.097290,1137.035645 
	C1191.223511,1133.796509 1189.906250,1132.343628 1187.208740,1131.072754 
	C1174.694092,1125.177002 1161.562012,1123.073730 1146.925415,1124.316040 
z"/>
<path fill="#3430FF" opacity="1.000000" stroke="none" 
	d="
M1314.205566,609.000488 
	C1314.197876,670.498108 1314.248535,731.495911 1314.066895,792.492920 
	C1314.052979,797.139160 1315.086304,799.389709 1319.889282,800.174072 
	C1324.786865,800.973755 1329.546997,802.640625 1334.344116,804.009338 
	C1335.314453,804.286255 1336.180786,804.927429 1338.566528,806.162170 
	C1331.243652,808.137451 1325.463867,809.975403 1319.556396,811.195068 
	C1315.399658,812.053284 1314.014526,813.808350 1314.058105,818.206360 
	C1314.300049,842.702942 1314.100952,867.203613 1314.234253,891.701904 
	C1314.256592,895.820251 1313.146851,898.919189 1310.167847,901.882324 
	C1278.264282,933.615356 1246.529541,965.518372 1214.544312,997.168518 
	C1212.344604,999.345215 1208.515259,1000.998047 1205.439941,1001.003906 
	C1102.111206,1001.200317 998.781860,1001.151733 895.452698,1001.223877 
	C891.487610,1001.226624 888.565857,1000.004211 885.759460,997.184448 
	C854.252014,965.526550 822.690613,933.921753 790.991943,902.455627 
	C787.474915,898.964355 786.231201,895.337891 786.235718,890.510681 
	C786.333557,784.848267 786.310425,679.185791 786.310425,573.523315 
	C786.310425,571.395203 786.310425,569.267090 786.310425,567.105164 
	C774.542419,567.964417 763.482727,577.316833 759.923401,589.691467 
	C755.282104,605.827637 751.046021,622.080322 746.363586,639.281860 
	C745.424683,636.287659 744.683411,634.170837 744.096436,632.011963 
	C740.431396,618.530884 736.803162,605.039856 733.158325,591.553284 
	C729.681702,578.689270 721.401611,570.593140 708.635315,567.073425 
	C695.168945,563.360657 681.670105,559.765930 668.191895,556.095703 
	C666.723267,555.695740 665.297607,555.138000 662.501038,554.200562 
	C665.069214,553.119690 666.168701,552.502014 667.348816,552.184143 
	C680.196350,548.723694 693.008423,545.115051 705.925842,541.935181 
	C720.966248,538.232727 730.258972,529.180298 734.000854,514.069702 
	C737.398071,500.350708 741.279236,486.751495 744.964355,473.104126 
	C745.259399,472.011536 745.688782,470.955231 746.414246,468.833466 
	C750.833008,485.300751 754.941467,500.752045 759.131531,516.181152 
	C762.372742,528.116211 769.658142,536.380554 781.523560,540.341064 
	C782.890137,540.797180 784.339722,541.004456 786.310364,541.455078 
	C786.310364,539.268982 786.310364,537.631226 786.310364,535.993469 
	C786.310364,501.328186 786.251587,466.662659 786.392761,431.997955 
	C786.408508,428.133606 785.229248,425.479767 782.371338,422.959595 
	C774.141541,415.702240 764.403015,411.792633 753.971802,409.036072 
	C728.605591,402.332764 703.286804,395.450134 676.589233,388.274261 
	C687.409546,385.325592 696.981506,382.688904 706.569153,380.110657 
	C723.272705,375.618927 739.987427,371.169159 756.694641,366.690887 
	C779.615112,360.547150 794.067688,346.091309 800.071655,323.029663 
	C805.979553,300.336945 812.160034,277.714630 818.369202,255.102158 
	C818.792969,253.559067 820.458740,252.357040 821.546936,250.996399 
	C822.647461,252.336411 824.336487,253.513702 824.758850,255.041214 
	C829.803284,273.284729 834.659485,291.580292 839.815247,310.795258 
	C841.595886,309.123627 842.876282,307.986450 844.084717,306.777374 
	C857.868958,292.985565 871.698547,279.238251 885.374695,265.340057 
	C888.398315,262.267334 891.611877,260.948608 895.966003,260.952576 
	C998.795227,261.046661 1101.624512,261.045502 1204.453613,260.955292 
	C1208.770752,260.951508 1212.000366,262.150879 1215.070435,265.234283 
	C1246.584717,296.885132 1278.173462,328.462372 1309.857056,359.943604 
	C1313.085815,363.151703 1314.313721,366.521729 1314.307617,371.005554 
	C1314.200928,450.170441 1314.216553,529.335449 1314.205566,609.000488 
M1165.308960,906.955566 
	C1169.832153,907.739197 1172.992432,905.849976 1176.159790,902.592773 
	C1189.636353,888.733826 1203.463501,875.216064 1216.959839,861.375793 
	C1218.579590,859.714722 1219.716797,856.869385 1219.786865,854.534302 
	C1220.091064,844.376953 1219.762329,834.201599 1220.004639,824.040955 
	C1220.085693,820.644165 1219.216064,819.008301 1215.772705,818.162048 
	C1205.276733,815.582642 1194.857056,812.690369 1184.419312,809.876892 
	C1179.736816,808.614868 1175.082153,807.250549 1169.287964,805.614502 
	C1187.017944,800.803772 1203.472412,796.339111 1219.633301,791.954163 
	C1219.795532,790.891785 1219.889038,790.565735 1219.889038,790.239624 
	C1219.902588,662.409180 1219.920166,534.578796 1219.816040,406.748444 
	C1219.814575,404.874725 1218.749390,402.555115 1217.414062,401.198029 
	C1203.154663,386.705811 1188.797119,372.308380 1174.286987,358.067841 
	C1172.721924,356.531952 1170.026001,355.351562 1167.852417,355.347748 
	C1089.520996,355.210236 1011.189392,355.228790 932.857788,355.260040 
	C931.403564,355.260620 929.452576,355.150482 928.575684,355.981140 
	C922.849792,361.405548 917.356628,367.075653 911.221252,373.233643 
	C929.855225,378.270752 947.578796,383.061768 965.302429,387.852783 
	C938.633301,395.833801 912.056091,403.015961 885.441772,410.057739 
	C882.102173,410.941345 880.653748,412.182678 880.656860,416.038605 
	C880.776550,562.202026 880.742615,708.365479 880.888855,854.528870 
	C880.891296,856.977295 882.263184,860.002136 883.998413,861.779480 
	C897.735840,875.850281 911.776184,889.624939 925.567322,903.644165 
	C927.996521,906.113525 930.426636,907.030579 933.858826,907.026489 
	C1010.690430,906.934082 1087.522095,906.955566 1165.308960,906.955566 
M867.147034,614.500000 
	C867.147034,549.349915 867.147034,484.199829 867.147034,418.079346 
	C854.956116,426.870026 847.509277,437.345825 843.937622,450.543701 
	C839.593323,466.596222 835.282532,482.657806 830.943787,498.711853 
	C827.934692,509.846039 824.902954,520.974121 821.563721,533.274719 
	C814.406738,506.785645 807.593628,481.569550 800.780579,456.353455 
	C800.464722,456.418762 800.148865,456.484070 799.833008,456.549347 
	C799.833008,482.536682 799.833008,508.523987 799.833008,534.511292 
	C799.833008,545.389526 799.841309,545.358337 810.554504,548.219360 
	C817.177673,549.988098 823.770874,551.869202 830.377502,553.699890 
	C821.873718,556.836914 813.582275,559.289185 805.163513,561.172424 
	C801.000671,562.103699 799.721436,563.843201 799.727112,568.175659 
	C799.863220,671.661926 799.833008,775.148438 799.833008,878.634888 
	C799.833008,880.404297 799.833008,882.173767 799.833008,884.483643 
	C801.701355,883.858948 802.948425,883.522949 804.132263,883.033997 
	C823.494934,875.036621 842.792175,866.875549 862.253784,859.127258 
	C866.242004,857.539429 867.237854,855.498474 867.231995,851.468994 
	C867.117615,772.812805 867.147095,694.156372 867.147034,614.500000 
M1300.921143,708.500000 
	C1300.921143,598.400452 1300.921143,488.300903 1300.921143,377.470520 
	C1298.630493,378.375458 1296.973145,379.004852 1295.335083,379.681122 
	C1276.432617,387.484589 1257.586426,395.429535 1238.591309,403.000671 
	C1234.334717,404.697235 1233.159668,406.926270 1233.164795,411.409180 
	C1233.302734,533.233643 1233.274780,655.058289 1233.274780,776.882935 
	C1233.274780,778.630859 1233.274780,780.378784 1233.274780,782.126709 
	C1233.795166,782.229553 1234.315552,782.332397 1234.835938,782.435303 
	C1246.244873,763.792175 1247.002075,741.519714 1254.818115,721.408813 
	C1255.233398,722.588074 1255.733765,723.769531 1256.068237,724.996155 
	C1259.699097,738.311951 1263.337280,751.625854 1266.908081,764.957764 
	C1271.809692,783.258728 1281.689575,791.927795 1300.921143,794.498291 
	C1300.921143,766.142090 1300.921143,737.821045 1300.921143,708.500000 
M904.223389,987.890259 
	C1001.919067,987.890259 1099.614746,987.890259 1197.502686,987.890259 
	C1197.342529,986.970032 1197.344360,986.465881 1197.166992,986.035706 
	C1188.486938,964.989990 1179.853516,943.924316 1170.956055,922.970825 
	C1170.373657,921.599365 1167.757690,920.299561 1166.085327,920.296692 
	C1088.973633,920.165649 1011.861633,920.202698 934.749695,920.112061 
	C931.571167,920.108337 930.116516,921.154480 928.932617,924.057922 
	C920.839172,943.907959 912.540466,963.674194 904.360291,983.489136 
	C903.818359,984.801941 903.708313,986.292908 904.223389,987.890259 
M948.501953,341.919037 
	C1020.650574,341.919037 1092.799316,341.884552 1164.947754,342.017090 
	C1168.698730,342.023987 1170.492310,340.962402 1171.894897,337.497253 
	C1179.754150,318.080444 1187.859131,298.763092 1195.861572,279.404053 
	C1196.416382,278.061707 1196.819824,276.656830 1197.448730,274.831238 
	C1099.073730,274.831238 1001.220703,274.831238 902.922180,274.831238 
	C903.668884,276.741699 904.237732,278.270752 904.859924,279.777740 
	C911.268433,295.298920 917.667664,310.823944 924.110535,326.330872 
	C926.212769,331.390564 927.135132,338.415070 930.958191,340.882172 
	C935.009216,343.496338 941.869690,341.756989 948.501953,341.919037 
M937.213562,389.928436 
	C938.618835,389.475159 940.024109,389.021851 942.309021,388.284821 
	C940.443726,387.630157 939.544434,387.248260 938.610107,386.996460 
	C919.987610,381.977478 901.298096,377.194885 882.751404,371.910431 
	C859.645081,365.326752 844.599426,350.350800 837.949707,327.181030 
	C835.473450,318.552704 833.275024,309.844910 830.926453,301.179688 
	C827.935242,290.143677 824.920227,279.114105 821.542542,266.712372 
	C816.073730,287.075928 810.974365,306.010651 805.904785,324.953308 
	C799.322266,349.549011 783.974182,365.495056 759.288330,372.212830 
	C741.161682,377.145660 723.020325,382.024475 704.891785,386.950226 
	C703.766418,387.256042 702.695618,387.762787 700.907837,388.436768 
	C720.554810,393.758209 739.297485,398.954132 758.105896,403.899872 
	C783.642883,410.614929 799.442688,426.769928 806.072205,452.255951 
	C810.966125,471.069733 816.173096,489.802094 821.498474,509.525787 
	C822.228455,507.041565 822.713562,505.494598 823.137817,503.931122 
	C828.014832,485.960083 832.816101,467.968170 837.769226,450.018127 
	C844.465881,425.749207 860.262146,410.624084 884.428528,404.071442 
	C901.756592,399.372986 919.101562,394.737122 937.213562,389.928436 
M905.481079,945.952148 
	C909.237183,936.896667 912.884094,927.793457 916.815857,918.814880 
	C917.999817,916.111145 917.700623,914.461731 915.564697,912.366272 
	C904.747437,901.754517 894.127380,890.942017 883.402161,880.236023 
	C879.876587,876.716675 876.642273,871.200134 872.548584,870.423279 
	C868.247192,869.606934 863.014465,873.227844 858.294922,875.168213 
	C840.633240,882.429749 823.015137,889.797241 805.790039,896.954895 
	C834.052002,925.161072 862.265381,953.318665 890.691040,981.688171 
	C895.430847,970.207397 900.293396,958.429382 905.481079,945.952148 
M1231.647095,870.715454 
	C1228.968140,868.850769 1227.209106,870.231445 1225.265259,872.192322 
	C1212.018433,885.555237 1198.758423,898.907410 1185.308228,912.064270 
	C1182.786987,914.530579 1182.813721,916.474304 1184.062012,919.441711 
	C1192.244385,938.891907 1200.249512,958.416748 1208.335205,977.907837 
	C1208.931274,979.344421 1209.705933,980.706909 1210.109985,981.522888 
	C1238.433105,953.367554 1266.624146,925.343445 1295.120361,897.015991 
	C1282.664185,891.861145 1270.198975,886.702576 1257.604004,881.490295 
	C1256.543091,884.826477 1255.703613,887.466553 1254.641235,890.807251 
	C1253.980225,888.559875 1253.305176,887.159546 1253.190430,885.714844 
	C1252.767334,880.386414 1249.887207,877.543030 1244.850952,876.025757 
	C1240.576660,874.737976 1236.531494,872.689697 1231.647095,870.715454 
M1211.052002,280.420197 
	C1210.427979,280.993835 1209.517578,281.448151 1209.221436,282.158508 
	C1200.594727,302.852325 1191.964966,323.545868 1183.596802,344.344513 
	C1183.037231,345.735229 1183.977783,348.496887 1185.158325,349.702911 
	C1198.430420,363.261902 1211.943604,376.584747 1225.237793,390.122589 
	C1227.484497,392.410492 1229.254517,392.635345 1232.114868,391.369476 
	C1240.918945,387.473328 1249.869263,383.907532 1258.764893,380.218628 
	C1270.850586,375.206940 1282.938110,370.200012 1295.607544,364.949524 
	C1267.289185,336.610992 1239.443237,308.745209 1211.052002,280.420197 
M1239.183716,829.379578 
	C1241.436890,834.520081 1244.192505,839.505676 1245.835571,844.834229 
	C1248.978882,855.027588 1251.489258,865.416199 1254.566162,876.853638 
	C1255.328979,874.651733 1255.760742,873.610718 1256.052612,872.531860 
	C1258.744019,862.586060 1261.375610,852.623962 1264.093872,842.685608 
	C1268.024414,828.315125 1277.193481,819.096375 1291.545288,815.096313 
	C1296.826904,813.624207 1302.160156,812.338135 1307.451538,810.899414 
	C1313.383911,809.286316 1319.295654,807.596436 1326.474976,805.587830 
	C1314.790894,802.462646 1304.497437,799.796814 1294.261475,796.926453 
	C1290.438232,795.854248 1286.547119,794.698303 1283.036377,792.898804 
	C1272.980957,787.744690 1266.914062,779.320984 1264.043335,768.458801 
	C1261.128174,757.429199 1258.112549,746.426208 1255.140869,735.411560 
	C1251.237549,746.836487 1248.234741,758.176575 1245.064941,769.469910 
	C1241.194702,783.258728 1232.251465,792.130310 1218.501465,796.022339 
	C1207.185547,799.225220 1195.809326,802.215515 1183.739868,805.495728 
	C1185.622192,806.156555 1186.826538,806.663757 1188.076172,807.004517 
	C1198.016602,809.715820 1207.958374,812.421570 1217.913696,815.077148 
	C1226.397339,817.340149 1233.439819,821.761230 1239.183716,829.379578 
M777.743530,542.909119 
	C765.917419,537.803284 758.666199,528.877869 755.440979,516.475342 
	C752.598389,505.543945 749.595093,494.654266 746.444336,482.933472 
	C745.767761,484.846130 745.262024,486.027985 744.929077,487.256683 
	C742.233887,497.201019 739.639465,507.173126 736.881958,517.100037 
	C733.020203,531.002441 724.332031,540.310425 710.328369,544.316711 
	C703.140259,546.373108 695.885559,548.195618 688.676941,550.181824 
	C684.640686,551.293945 680.637085,552.524231 676.618774,553.701294 
	C688.121216,557.733826 699.504578,560.680725 710.787842,563.970886 
	C723.730347,567.744873 732.289124,576.207947 736.210327,589.140747 
	C738.041504,595.180298 739.531494,601.322815 741.205444,607.410583 
	C742.774536,613.116882 744.382324,618.812500 746.296021,625.669983 
	C749.738647,612.974609 752.737305,601.568604 755.933777,590.218262 
	C759.813477,576.441711 768.719299,567.561340 782.527893,563.730957 
	C792.134277,561.066162 801.781860,558.549622 811.405151,555.945190 
	C812.982483,555.518311 814.529602,554.979614 816.090698,554.492615 
	C816.003601,554.184814 815.916565,553.877075 815.829468,553.569275 
	C803.380066,550.088318 790.930725,546.607361 777.743530,542.909119 
M845.537231,324.199036 
	C845.317200,325.826599 844.430847,327.746490 844.994141,329.030396 
	C847.253418,334.180389 849.462891,339.471649 852.597839,344.095764 
	C862.150269,358.185852 876.378601,364.962524 892.581909,368.091125 
	C894.422058,368.446442 897.140625,367.781189 898.489258,366.541748 
	C904.250000,361.247467 909.540955,355.445129 915.234070,350.072693 
	C917.502686,347.931824 917.937256,346.192230 916.692688,343.243530 
	C908.288513,323.331329 900.097290,303.329285 891.809998,283.367584 
	C891.344666,282.246796 890.638977,281.225769 889.902222,279.901367 
	C875.051575,294.736969 860.557861,309.215973 845.537231,324.199036 
M1262.317017,863.120422 
	C1261.965454,864.719360 1261.614014,866.318298 1261.155029,868.405884 
	C1274.299805,873.830322 1287.338501,879.210938 1300.915894,884.813904 
	C1300.915894,862.184448 1300.918213,840.577209 1300.904175,818.970032 
	C1300.903687,818.335022 1300.731323,817.700073 1300.640747,817.077087 
	C1284.740479,817.942505 1272.177856,827.751404 1267.942993,842.618652 
	C1266.079712,849.160217 1264.390503,855.751404 1262.317017,863.120422 
M1237.476807,833.169922 
	C1236.350952,831.677673 1235.224976,830.185364 1233.232910,827.544983 
	C1233.232910,837.568237 1233.172729,845.978699 1233.307495,854.385986 
	C1233.324829,855.461792 1234.091064,857.068237 1234.965210,857.493042 
	C1238.587402,859.253174 1242.384155,860.653931 1246.116943,862.186646 
	C1246.489014,861.885376 1246.861084,861.584167 1247.233154,861.282898 
	C1244.115112,852.114685 1240.997070,842.946472 1237.476807,833.169922 
z"/>
<path fill="#332FFF" opacity="1.000000" stroke="none" 
	d="
M983.265137,1193.000244 
	C983.264954,1202.488892 983.264954,1211.477661 983.264954,1220.964600 
	C989.801697,1220.964600 996.054443,1220.964600 1002.552979,1220.964600 
	C1002.552979,1226.701782 1002.552979,1231.938599 1002.552979,1237.473633 
	C982.714294,1237.473633 963.117126,1237.473633 943.123657,1237.473633 
	C943.123657,1232.148193 943.123657,1226.761230 943.123657,1221.051147 
	C949.915833,1221.051147 956.705872,1221.051147 963.866028,1221.051147 
	C963.866028,1179.712158 963.866028,1138.686279 963.866028,1097.326172 
	C950.021545,1094.633911 936.998962,1095.782593 925.453552,1104.583496 
	C916.321411,1111.544800 913.467224,1121.083252 915.138855,1132.090332 
	C916.145630,1138.719849 920.326843,1142.355713 926.078979,1142.276367 
	C931.341553,1142.203735 934.658691,1138.835449 935.829712,1132.174438 
	C936.226318,1129.918457 936.315552,1127.608398 936.566101,1125.115479 
	C942.462646,1125.115479 948.067078,1125.115479 954.130493,1125.115479 
	C954.121582,1136.172607 952.119141,1146.654419 943.139404,1153.834595 
	C934.152405,1161.020508 923.412109,1160.804077 913.231140,1156.763550 
	C902.267578,1152.412231 897.967712,1142.691772 897.076172,1131.695068 
	C894.819397,1103.859253 912.922791,1082.839111 941.717896,1080.194702 
	C950.576477,1079.381104 959.660767,1079.886230 968.542847,1080.775269 
	C978.226074,1081.744507 986.062744,1086.995728 992.209351,1094.409180 
	C996.127625,1099.135132 999.779968,1104.141968 1003.039246,1109.343994 
	C1021.419922,1138.680176 1039.644653,1168.114014 1057.925171,1197.512939 
	C1058.971191,1199.195068 1060.039429,1200.863281 1061.629395,1203.380127 
	C1061.629395,1167.825928 1061.629395,1133.196167 1061.629395,1098.206421 
	C1055.456055,1098.206421 1049.335449,1098.206421 1042.948975,1098.206421 
	C1042.948975,1092.611816 1042.948975,1087.372070 1042.948975,1081.810791 
	C1062.809204,1081.810791 1082.528687,1081.810791 1102.510254,1081.810791 
	C1102.510254,1087.269897 1102.510254,1092.507324 1102.510254,1098.150635 
	C1095.359863,1098.150635 1088.401367,1098.150635 1080.961426,1098.150635 
	C1080.961426,1144.802124 1080.961426,1191.052124 1080.961426,1237.767700 
	C1075.027222,1237.767700 1069.540527,1238.066895 1064.123657,1237.583862 
	C1062.514404,1237.440308 1060.687012,1235.359131 1059.659058,1233.725464 
	C1035.460083,1195.266968 1011.358704,1156.747070 987.230225,1118.244019 
	C986.314453,1116.782837 985.306580,1115.379272 983.265320,1114.267456 
	C983.265320,1140.344971 983.265320,1166.422607 983.265137,1193.000244 
z"/>
<path fill="#332FFF" opacity="1.000000" stroke="none" 
	d="
M1147.384399,1124.266357 
	C1161.562012,1123.073730 1174.694092,1125.177002 1187.208740,1131.072754 
	C1189.906250,1132.343628 1191.223511,1133.796509 1191.097290,1137.035645 
	C1190.812256,1144.345947 1191.007690,1151.674805 1191.007690,1159.347656 
	C1185.863892,1159.347656 1180.957886,1159.347656 1175.284790,1159.347656 
	C1175.284790,1155.596680 1175.556274,1151.808472 1175.154419,1148.093140 
	C1174.987671,1146.552124 1173.692383,1144.336548 1172.379517,1143.844727 
	C1163.631470,1140.567871 1154.558960,1139.832397 1145.384399,1141.765137 
	C1139.494995,1143.005737 1135.427124,1146.544922 1134.316772,1152.568359 
	C1133.274170,1158.224365 1136.895386,1161.601074 1141.268311,1164.141602 
	C1151.762085,1170.238037 1162.388184,1176.107788 1172.845337,1182.265381 
	C1176.848145,1184.622437 1180.721436,1187.284668 1184.333496,1190.204224 
	C1197.096680,1200.520386 1197.235596,1218.474609 1184.734497,1229.237061 
	C1176.663208,1236.185791 1166.899902,1238.562744 1156.602295,1239.410645 
	C1143.111206,1240.521362 1130.054443,1239.008545 1117.599243,1233.317627 
	C1114.793823,1232.035767 1113.694580,1230.416748 1113.806763,1227.269897 
	C1114.055664,1220.295166 1113.884277,1213.305542 1113.884277,1205.960938 
	C1119.035767,1205.960938 1123.916992,1205.960938 1129.460083,1205.960938 
	C1129.460083,1209.416016 1129.162109,1212.894165 1129.594116,1216.279053 
	C1129.790527,1217.818604 1131.163086,1220.089233 1132.458862,1220.468750 
	C1143.202637,1223.614868 1154.145020,1224.307129 1164.904175,1220.756958 
	C1173.741577,1217.840942 1177.356812,1210.479004 1173.412842,1203.880371 
	C1172.031128,1201.568726 1169.718994,1199.529663 1167.376099,1198.127197 
	C1158.817017,1193.003174 1149.983521,1188.338013 1141.415405,1183.228394 
	C1135.569580,1179.742432 1129.673340,1176.207397 1124.359253,1171.989502 
	C1111.273071,1161.602539 1111.653687,1141.459106 1125.713745,1132.215454 
	C1131.859253,1128.175171 1139.799927,1126.865601 1147.384399,1124.266357 
z"/>
<path fill="#FFFFFF" opacity="1.000000" stroke="none" 
	d="
M1164.831299,906.955566 
	C1087.522095,906.955566 1010.690430,906.934082 933.858826,907.026489 
	C930.426636,907.030579 927.996521,906.113525 925.567322,903.644165 
	C911.776184,889.624939 897.735840,875.850281 883.998413,861.779480 
	C882.263184,860.002136 880.891296,856.977295 880.888855,854.528870 
	C880.742615,708.365479 880.776550,562.202026 880.656860,416.038605 
	C880.653748,412.182678 882.102173,410.941345 885.441772,410.057739 
	C912.056091,403.015961 938.633301,395.833801 965.302429,387.852783 
	C947.578796,383.061768 929.855225,378.270752 911.221252,373.233643 
	C917.356628,367.075653 922.849792,361.405548 928.575684,355.981140 
	C929.452576,355.150482 931.403564,355.260620 932.857788,355.260040 
	C1011.189392,355.228790 1089.520996,355.210236 1167.852417,355.347748 
	C1170.026001,355.351562 1172.721924,356.531952 1174.286987,358.067841 
	C1188.797119,372.308380 1203.154663,386.705811 1217.414062,401.198029 
	C1218.749390,402.555115 1219.814575,404.874725 1219.816040,406.748444 
	C1219.920166,534.578796 1219.902588,662.409180 1219.889038,790.239624 
	C1219.889038,790.565735 1219.795532,790.891785 1219.633301,791.954163 
	C1203.472412,796.339111 1187.017944,800.803772 1169.287964,805.614502 
	C1175.082153,807.250549 1179.736816,808.614868 1184.419312,809.876892 
	C1194.857056,812.690369 1205.276733,815.582642 1215.772705,818.162048 
	C1219.216064,819.008301 1220.085693,820.644165 1220.004639,824.040955 
	C1219.762329,834.201599 1220.091064,844.376953 1219.786865,854.534302 
	C1219.716797,856.869385 1218.579590,859.714722 1216.959839,861.375793 
	C1203.463501,875.216064 1189.636353,888.733826 1176.159790,902.592773 
	C1172.992432,905.849976 1169.832153,907.739197 1164.831299,906.955566 
M1114.791138,628.499512 
	C1114.791138,642.804504 1114.791138,657.109558 1114.791138,671.414551 
	C1114.274658,671.521057 1113.758179,671.627625 1113.241577,671.734131 
	C1061.075806,615.851990 1008.909912,559.969849 956.239746,503.547516 
	C956.239746,586.210571 956.239746,667.769287 956.239746,749.447266 
	C967.510559,749.447266 978.433289,749.447266 990.086182,749.447266 
	C990.086182,697.262695 990.086182,645.345154 990.086182,592.403503 
	C1043.277466,649.389221 1095.613037,705.458130 1148.542969,762.163879 
	C1148.542969,679.457703 1148.542969,597.906494 1148.542969,516.246155 
	C1137.190063,516.246155 1126.132690,516.246155 1114.791626,516.246155 
	C1114.791626,553.530945 1114.791626,590.515198 1114.791138,628.499512 
z"/>
<path fill="#FFFFFF" opacity="1.000000" stroke="none" 
	d="
M867.147095,615.000000 
	C867.147095,694.156372 867.117615,772.812805 867.231995,851.468994 
	C867.237854,855.498474 866.242004,857.539429 862.253784,859.127258 
	C842.792175,866.875549 823.494934,875.036621 804.132263,883.033997 
	C802.948425,883.522949 801.701355,883.858948 799.833008,884.483643 
	C799.833008,882.173767 799.833008,880.404297 799.833008,878.634888 
	C799.833008,775.148438 799.863220,671.661926 799.727112,568.175659 
	C799.721436,563.843201 801.000671,562.103699 805.163513,561.172424 
	C813.582275,559.289185 821.873718,556.836914 830.377502,553.699890 
	C823.770874,551.869202 817.177673,549.988098 810.554504,548.219360 
	C799.841309,545.358337 799.833008,545.389526 799.833008,534.511292 
	C799.833008,508.523987 799.833008,482.536682 799.833008,456.549347 
	C800.148865,456.484070 800.464722,456.418762 800.780579,456.353455 
	C807.593628,481.569550 814.406738,506.785645 821.563721,533.274719 
	C824.902954,520.974121 827.934692,509.846039 830.943787,498.711853 
	C835.282532,482.657806 839.593323,466.596222 843.937622,450.543701 
	C847.509277,437.345825 854.956116,426.870026 867.147034,418.079346 
	C867.147034,484.199829 867.147034,549.349915 867.147095,615.000000 
z"/>
<path fill="#FDFDFF" opacity="1.000000" stroke="none" 
	d="
M1300.921143,709.000000 
	C1300.921143,737.821045 1300.921143,766.142090 1300.921143,794.498291 
	C1281.689575,791.927795 1271.809692,783.258728 1266.908081,764.957764 
	C1263.337280,751.625854 1259.699097,738.311951 1256.068237,724.996155 
	C1255.733765,723.769531 1255.233398,722.588074 1254.818115,721.408813 
	C1247.002075,741.519714 1246.244873,763.792175 1234.835938,782.435303 
	C1234.315552,782.332397 1233.795166,782.229553 1233.274780,782.126709 
	C1233.274780,780.378784 1233.274780,778.630859 1233.274780,776.882935 
	C1233.274780,655.058289 1233.302734,533.233643 1233.164795,411.409180 
	C1233.159668,406.926270 1234.334717,404.697235 1238.591309,403.000671 
	C1257.586426,395.429535 1276.432617,387.484589 1295.335083,379.681122 
	C1296.973145,379.004852 1298.630493,378.375458 1300.921143,377.470520 
	C1300.921143,488.300903 1300.921143,598.400452 1300.921143,709.000000 
z"/>
<path fill="#FEFEFF" opacity="1.000000" stroke="none" 
	d="
M903.810425,987.795654 
	C903.708313,986.292908 903.818359,984.801941 904.360291,983.489136 
	C912.540466,963.674194 920.839172,943.907959 928.932617,924.057922 
	C930.116516,921.154480 931.571167,920.108337 934.749695,920.112061 
	C1011.861633,920.202698 1088.973633,920.165649 1166.085327,920.296692 
	C1167.757690,920.299561 1170.373657,921.599365 1170.956055,922.970825 
	C1179.853516,943.924316 1188.486938,964.989990 1197.166992,986.035706 
	C1197.344360,986.465881 1197.342529,986.970032 1197.502686,987.890259 
	C1099.614746,987.890259 1001.919067,987.890259 903.810425,987.795654 
z"/>
<path fill="#FDFDFF" opacity="1.000000" stroke="none" 
	d="
M948.002563,341.919037 
	C941.869690,341.756989 935.009216,343.496338 930.958191,340.882172 
	C927.135132,338.415070 926.212769,331.390564 924.110535,326.330872 
	C917.667664,310.823944 911.268433,295.298920 904.859924,279.777740 
	C904.237732,278.270752 903.668884,276.741699 902.922180,274.831238 
	C1001.220703,274.831238 1099.073730,274.831238 1197.448730,274.831238 
	C1196.819824,276.656830 1196.416382,278.061707 1195.861572,279.404053 
	C1187.859131,298.763092 1179.754150,318.080444 1171.894897,337.497253 
	C1170.492310,340.962402 1168.698730,342.023987 1164.947754,342.017090 
	C1092.799316,341.884552 1020.650574,341.919037 948.002563,341.919037 
z"/>
<path fill="#FEFEFF" opacity="1.000000" stroke="none" 
	d="
M936.826294,390.000885 
	C919.101562,394.737122 901.756592,399.372986 884.428528,404.071442 
	C860.262146,410.624084 844.465881,425.749207 837.769226,450.018127 
	C832.816101,467.968170 828.014832,485.960083 823.137817,503.931122 
	C822.713562,505.494598 822.228455,507.041565 821.498474,509.525787 
	C816.173096,489.802094 810.966125,471.069733 806.072205,452.255951 
	C799.442688,426.769928 783.642883,410.614929 758.105896,403.899872 
	C739.297485,398.954132 720.554810,393.758209 700.907837,388.436768 
	C702.695618,387.762787 703.766418,387.256042 704.891785,386.950226 
	C723.020325,382.024475 741.161682,377.145660 759.288330,372.212830 
	C783.974182,365.495056 799.322266,349.549011 805.904785,324.953308 
	C810.974365,306.010651 816.073730,287.075928 821.542542,266.712372 
	C824.920227,279.114105 827.935242,290.143677 830.926453,301.179688 
	C833.275024,309.844910 835.473450,318.552704 837.949707,327.181030 
	C844.599426,350.350800 859.645081,365.326752 882.751404,371.910431 
	C901.298096,377.194885 919.987610,381.977478 938.610107,386.996460 
	C939.544434,387.248260 940.443726,387.630157 942.309021,388.284821 
	C940.024109,389.021851 938.618835,389.475159 936.826294,390.000885 
z"/>
<path fill="#FDFDFF" opacity="1.000000" stroke="none" 
	d="
M905.318481,946.301758 
	C900.293396,958.429382 895.430847,970.207397 890.691040,981.688171 
	C862.265381,953.318665 834.052002,925.161072 805.790039,896.954895 
	C823.015137,889.797241 840.633240,882.429749 858.294922,875.168213 
	C863.014465,873.227844 868.247192,869.606934 872.548584,870.423279 
	C876.642273,871.200134 879.876587,876.716675 883.402161,880.236023 
	C894.127380,890.942017 904.747437,901.754517 915.564697,912.366272 
	C917.700623,914.461731 917.999817,916.111145 916.815857,918.814880 
	C912.884094,927.793457 909.237183,936.896667 905.318481,946.301758 
z"/>
<path fill="#FDFDFF" opacity="1.000000" stroke="none" 
	d="
M1232.015991,870.846680 
	C1236.531494,872.689697 1240.576660,874.737976 1244.850952,876.025757 
	C1249.887207,877.543030 1252.767334,880.386414 1253.190430,885.714844 
	C1253.305176,887.159546 1253.980225,888.559875 1254.641235,890.807251 
	C1255.703613,887.466553 1256.543091,884.826477 1257.604004,881.490295 
	C1270.198975,886.702576 1282.664185,891.861145 1295.120361,897.015991 
	C1266.624146,925.343445 1238.433105,953.367554 1210.109985,981.522888 
	C1209.705933,980.706909 1208.931274,979.344421 1208.335205,977.907837 
	C1200.249512,958.416748 1192.244385,938.891907 1184.062012,919.441711 
	C1182.813721,916.474304 1182.786987,914.530579 1185.308228,912.064270 
	C1198.758423,898.907410 1212.018433,885.555237 1225.265259,872.192322 
	C1227.209106,870.231445 1228.968140,868.850769 1232.015991,870.846680 
z"/>
<path fill="#FEFEFF" opacity="1.000000" stroke="none" 
	d="
M1211.324585,280.649811 
	C1239.443237,308.745209 1267.289185,336.610992 1295.607544,364.949524 
	C1282.938110,370.200012 1270.850586,375.206940 1258.764893,380.218628 
	C1249.869263,383.907532 1240.918945,387.473328 1232.114868,391.369476 
	C1229.254517,392.635345 1227.484497,392.410492 1225.237793,390.122589 
	C1211.943604,376.584747 1198.430420,363.261902 1185.158325,349.702911 
	C1183.977783,348.496887 1183.037231,345.735229 1183.596802,344.344513 
	C1191.964966,323.545868 1200.594727,302.852325 1209.221436,282.158508 
	C1209.517578,281.448151 1210.427979,280.993835 1211.324585,280.649811 
z"/>
<path fill="#FDFDFF" opacity="1.000000" stroke="none" 
	d="
M1238.989990,829.076172 
	C1233.439819,821.761230 1226.397339,817.340149 1217.913696,815.077148 
	C1207.958374,812.421570 1198.016602,809.715820 1188.076172,807.004517 
	C1186.826538,806.663757 1185.622192,806.156555 1183.739868,805.495728 
	C1195.809326,802.215515 1207.185547,799.225220 1218.501465,796.022339 
	C1232.251465,792.130310 1241.194702,783.258728 1245.064941,769.469910 
	C1248.234741,758.176575 1251.237549,746.836487 1255.140869,735.411560 
	C1258.112549,746.426208 1261.128174,757.429199 1264.043335,768.458801 
	C1266.914062,779.320984 1272.980957,787.744690 1283.036377,792.898804 
	C1286.547119,794.698303 1290.438232,795.854248 1294.261475,796.926453 
	C1304.497437,799.796814 1314.790894,802.462646 1326.474976,805.587830 
	C1319.295654,807.596436 1313.383911,809.286316 1307.451538,810.899414 
	C1302.160156,812.338135 1296.826904,813.624207 1291.545288,815.096313 
	C1277.193481,819.096375 1268.024414,828.315125 1264.093872,842.685608 
	C1261.375610,852.623962 1258.744019,862.586060 1256.052612,872.531860 
	C1255.760742,873.610718 1255.328979,874.651733 1254.566162,876.853638 
	C1251.489258,865.416199 1248.978882,855.027588 1245.835571,844.834229 
	C1244.192505,839.505676 1241.436890,834.520081 1238.989990,829.076172 
z"/>
<path fill="#FDFDFF" opacity="1.000000" stroke="none" 
	d="
M778.112427,543.017761 
	C790.930725,546.607361 803.380066,550.088318 815.829468,553.569275 
	C815.916565,553.877075 816.003601,554.184814 816.090698,554.492615 
	C814.529602,554.979614 812.982483,555.518311 811.405151,555.945190 
	C801.781860,558.549622 792.134277,561.066162 782.527893,563.730957 
	C768.719299,567.561340 759.813477,576.441711 755.933777,590.218262 
	C752.737305,601.568604 749.738647,612.974609 746.296021,625.669983 
	C744.382324,618.812500 742.774536,613.116882 741.205444,607.410583 
	C739.531494,601.322815 738.041504,595.180298 736.210327,589.140747 
	C732.289124,576.207947 723.730347,567.744873 710.787842,563.970886 
	C699.504578,560.680725 688.121216,557.733826 676.618774,553.701294 
	C680.637085,552.524231 684.640686,551.293945 688.676941,550.181824 
	C695.885559,548.195618 703.140259,546.373108 710.328369,544.316711 
	C724.332031,540.310425 733.020203,531.002441 736.881958,517.100037 
	C739.639465,507.173126 742.233887,497.201019 744.929077,487.256683 
	C745.262024,486.027985 745.767761,484.846130 746.444336,482.933472 
	C749.595093,494.654266 752.598389,505.543945 755.440979,516.475342 
	C758.666199,528.877869 765.917419,537.803284 778.112427,543.017761 
z"/>
<path fill="#FDFDFF" opacity="1.000000" stroke="none" 
	d="
M845.800659,323.947021 
	C860.557861,309.215973 875.051575,294.736969 889.902222,279.901367 
	C890.638977,281.225769 891.344666,282.246796 891.809998,283.367584 
	C900.097290,303.329285 908.288513,323.331329 916.692688,343.243530 
	C917.937256,346.192230 917.502686,347.931824 915.234070,350.072693 
	C909.540955,355.445129 904.250000,361.247467 898.489258,366.541748 
	C897.140625,367.781189 894.422058,368.446442 892.581909,368.091125 
	C876.378601,364.962524 862.150269,358.185852 852.597839,344.095764 
	C849.462891,339.471649 847.253418,334.180389 844.994141,329.030396 
	C844.430847,327.746490 845.317200,325.826599 845.800659,323.947021 
z"/>
<path fill="#FDFDFF" opacity="1.000000" stroke="none" 
	d="
M1262.469604,862.720215 
	C1264.390503,855.751404 1266.079712,849.160217 1267.942993,842.618652 
	C1272.177856,827.751404 1284.740479,817.942505 1300.640747,817.077087 
	C1300.731323,817.700073 1300.903687,818.335022 1300.904175,818.970032 
	C1300.918213,840.577209 1300.915894,862.184448 1300.915894,884.813904 
	C1287.338501,879.210938 1274.299805,873.830322 1261.155029,868.405884 
	C1261.614014,866.318298 1261.965454,864.719360 1262.469604,862.720215 
z"/>
<path fill="#F1F1FF" opacity="1.000000" stroke="none" 
	d="
M1237.677979,833.474060 
	C1240.997070,842.946472 1244.115112,852.114685 1247.233154,861.282898 
	C1246.861084,861.584167 1246.489014,861.885376 1246.116943,862.186646 
	C1242.384155,860.653931 1238.587402,859.253174 1234.965210,857.493042 
	C1234.091064,857.068237 1233.324829,855.461792 1233.307495,854.385986 
	C1233.172729,845.978699 1233.232910,837.568237 1233.232910,827.544983 
	C1235.224976,830.185364 1236.350952,831.677673 1237.677979,833.474060 
z"/>
<path fill="#3834FF" opacity="1.000000" stroke="none" 
	d="
M1114.791382,627.999512 
	C1114.791626,590.515198 1114.791626,553.530945 1114.791626,516.246155 
	C1126.132690,516.246155 1137.190063,516.246155 1148.542969,516.246155 
	C1148.542969,597.906494 1148.542969,679.457703 1148.542969,762.163879 
	C1095.613037,705.458130 1043.277466,649.389221 990.086182,592.403503 
	C990.086182,645.345154 990.086182,697.262695 990.086182,749.447266 
	C978.433289,749.447266 967.510559,749.447266 956.239746,749.447266 
	C956.239746,667.769287 956.239746,586.210571 956.239746,503.547516 
	C1008.909912,559.969849 1061.075806,615.851990 1113.241577,671.734131 
	C1113.758179,671.627625 1114.274658,671.521057 1114.791138,671.414551 
	C1114.791138,657.109558 1114.791138,642.804504 1114.791382,627.999512 
M983.040222,659.500000 
	C983.040222,631.788391 983.040222,604.076721 983.040222,574.971436 
	C1036.430786,632.166382 1088.832153,688.301636 1141.641113,744.873474 
	C1141.641113,670.316223 1141.641113,596.620422 1141.641113,523.036865 
	C1134.852295,523.036865 1128.417969,523.036865 1121.371582,523.036865 
	C1121.371582,578.644470 1121.371582,633.932434 1121.371582,690.343140 
	C1068.198730,633.381348 1015.878296,577.332581 963.039551,520.728638 
	C963.039551,595.350952 963.039551,669.000854 963.039551,742.661499 
	C969.852051,742.661499 976.267761,742.661499 983.040222,742.661499 
	C983.040222,715.083618 983.040222,687.791809 983.040222,659.500000 
z"/>
<path fill="#FDFDFF" opacity="1.000000" stroke="none" 
	d="
M983.040222,660.000000 
	C983.040222,687.791809 983.040222,715.083618 983.040222,742.661499 
	C976.267761,742.661499 969.852051,742.661499 963.039551,742.661499 
	C963.039551,669.000854 963.039551,595.350952 963.039551,520.728638 
	C1015.878296,577.332581 1068.198730,633.381348 1121.371582,690.343140 
	C1121.371582,633.932434 1121.371582,578.644470 1121.371582,523.036865 
	C1128.417969,523.036865 1134.852295,523.036865 1141.641113,523.036865 
	C1141.641113,596.620422 1141.641113,670.316223 1141.641113,744.873474 
	C1088.832153,688.301636 1036.430786,632.166382 983.040222,574.971436 
	C983.040222,604.076721 983.040222,631.788391 983.040222,660.000000 
z"/>
</svg>